#!OML:ASF H:\Terrain\Patient Classification 1\Animal2\Wednesday\Animal2.ASF
:FULLY-SPECIFIED
:DEGREES
1836
root 9.05598 15.4386 -13.2157 45.6334 7.26696 2.38357
lowerback 27.9216 0.176196 1.23269
upperback 16.1923 0.64974 2.33002
thorax 2.77463 0.316543 1.69241
lowerneck -0.534756 5.24656 16.22
upperneck -16.3448 5.07173 -23.3962
head -3.37576 3.00441 -10.4832
rclavicle -2.38542e-015 -8.10048e-015
rhumerus 31.6963 24.5314 -39.2582
rradius 106.581
rwrist -17.0489
rhand -6.81414 23.2747
rfingers 7.12502
rthumb 19.0496 -5.8124
lclavicle -2.38542e-015 -8.10048e-015
lhumerus -341.396 -24.9669 405.432
lradius 39.8643
lwrist 10.739
lhand -20.886 22.1325
lfingers 7.12502
lthumb 5.48443 52.0415
rfemur -67.0103 -3.48056 -18.1372
rtibia 49.6409
rfoot -26.1899 -13.2485
rtoes -20.636
lfemur -76.2596 4.71126 8.88733
ltibia 50.6488
lfoot -18.3962 6.16238
ltoes -45.2397
1837
root 9.05753 15.4771 -13.2073 45.2847 7.2178 2.36195
lowerback 28.3105 0.255108 0.933218
upperback 16.0911 0.69503 2.35439
thorax 2.47699 0.316473 1.87588
lowerneck -0.626841 5.27831 16.6707
upperneck -15.9406 5.14031 -23.6911
head -3.19733 3.01328 -10.6457
rclavicle -3.18055e-015 -1.14798e-014
rhumerus 30.3924 25.9922 -39.4519
rradius 106.491
rwrist -17.2664
rhand -6.65121 22.9221
rfingers 7.12502
rthumb 19.2062 -6.14957
lclavicle -3.18055e-015 -1.14798e-014
lhumerus -340.212 -24.6346 404.883
lradius 40.28
lwrist 10.8776
lhand -22.5117 22.3588
lfingers 7.12502
lthumb 3.91462 52.3026
rfemur -66.5129 -3.17123 -18.0958
rtibia 49.251
rfoot -26.2551 -12.9033
rtoes -19.3043
lfemur -75.7249 4.53822 8.82004
ltibia 50.4751
lfoot -18.1544 6.71287
ltoes -46.9725
1838
root 9.06606 15.5016 -13.2045 45.2283 7.31854 2.18201
lowerback 28.2935 0.302199 0.837568
upperback 15.9676 0.736557 2.49282
thorax 2.33674 0.321724 2.07006
lowerneck -0.519453 5.2953 16.9176
upperneck -15.878 5.16559 -23.9665
head -3.16903 3.03038 -10.792
rclavicle 2.14687e-014 6.13748e-015
rhumerus 29.193 27.4606 -39.5004
rradius 106.185
rwrist -17.286
rhand -7.14703 22.6894
rfingers 7.12502
rthumb 18.7294 -6.42895
lclavicle 2.14687e-014 6.13748e-015
lhumerus -339.122 -24.0208 404.672
lradius 40.7739
lwrist 11.1118
lhand -24.1422 22.4637
lfingers 7.12502
lthumb 2.34005 52.4306
rfemur -66.2506 -3.09754 -17.829
rtibia 48.7985
rfoot -26.05 -13.0664
rtoes -20.0748
lfemur -75.5306 4.52747 9.00121
ltibia 50.2982
lfoot -17.8377 7.07813
ltoes -48.1328
1839
root 9.08729 15.5041 -13.2099 45.4471 7.31862 1.84821
lowerback 27.9964 0.38134 0.815163
upperback 15.7858 0.824374 2.66942
thorax 2.25272 0.351101 2.25233
lowerneck -0.45407 5.31143 17.0972
upperneck -15.7394 5.17251 -24.4099
head -3.10784 3.04802 -10.9828
rclavicle -4.77083e-015 -3.30231e-014
rhumerus 28.0912 28.6106 -39.4069
rradius 105.837
rwrist -17.4198
rhand -7.20545 22.6549
rfingers 7.12502
rthumb 18.6732 -6.46883
lclavicle -4.77083e-015 -3.30231e-014
lhumerus -338.141 -23.2853 404.653
lradius 41.4177
lwrist 11.2119
lhand -26.8097 22.5737
lfingers 7.12502
lthumb -0.236273 52.5533
rfemur -66.3881 -3.21401 -17.49
rtibia 48.3586
rfoot -25.9709 -12.8571
rtoes -19.3971
lfemur -75.6336 4.7286 9.31435
ltibia 50.171
lfoot -17.9761 6.67574
ltoes -46.5763
1840
root 9.07472 15.547 -13.1894 44.8478 7.17188 1.36318
lowerback 28.5898 0.701405 0.346716
upperback 15.7354 1.12766 2.93166
thorax 1.90649 0.450932 2.72732
lowerneck -0.501652 5.33966 17.2837
upperneck -15.4212 5.21362 -24.7929
head -2.97112 3.06818 -11.1381
rclavicle -6.36111e-015 -4.03781e-015
rhumerus 26.8671 29.6956 -39.2818
rradius 105.752
rwrist -17.8692
rhand -6.94245 22.3854
rfingers 7.12502
rthumb 18.9262 -6.71386
lclavicle -6.36111e-015 -4.03781e-015
lhumerus -337.207 -22.3896 404.745
lradius 42.0888
lwrist 10.8154
lhand -29.9696 22.755
lfingers 7.12502
lthumb -3.28807 52.7094
rfemur -65.9132 -2.23846 -17.2205
rtibia 47.9193
rfoot -25.9777 -12.8074
rtoes -17.3948
lfemur -74.5874 4.89623 9.56703
ltibia 49.9619
lfoot -18.447 6.23073
ltoes -45.1073
1841
root 9.07469 15.5634 -13.1859 44.8422 7.18094 1.15099
lowerback 28.5198 0.841013 0.0673918
upperback 15.5805 1.2412 3.07357
thorax 1.74511 0.48136 3.01117
lowerneck -0.481119 5.3797 17.4515
upperneck -15.2132 5.29619 -24.9085
head -2.88486 3.1018 -11.1984
rclavicle -4.77083e-015 -1.86361e-016
rhumerus 25.7573 31.0413 -39.0351
rradius 105.547
rwrist -18.9709
rhand -7.29431 22.0718
rfingers 7.12502
rthumb 18.5877 -7.06012
lclavicle -4.77083e-015 -1.86361e-016
lhumerus -336.3 -21.5215 404.796
lradius 42.7914
lwrist 10.3677
lhand -30.1516 23.0738
lfingers 7.12502
lthumb -3.46385 53.0254
rfemur -65.8121 -2.02013 -17.0373
rtibia 47.5251
rfoot -25.3097 -14.045
rtoes -21.1107
lfemur -74.3946 5.08701 9.6837
ltibia 49.7568
lfoot -18.5908 6.42107
ltoes -45.4468
1842
root 9.08009 15.576 -13.1825 44.7659 7.16257 0.897708
lowerback 28.5068 0.968269 -0.135774
upperback 15.4617 1.3546 3.17931
thorax 1.60126 0.518554 3.21204
lowerneck -0.451447 5.40564 17.523
upperneck -15.1187 5.3516 -24.9177
head -2.84792 3.12476 -11.2088
rclavicle -1.03368e-014 -5.80203e-015
rhumerus 24.8716 32.4051 -38.8675
rradius 104.97
rwrist -19.8452
rhand -7.77559 21.8322
rfingers 7.12502
rthumb 18.1248 -7.34332
lclavicle -1.03368e-014 -5.80203e-015
lhumerus -335.322 -20.9074 404.47
lradius 43.8134
lwrist 11.1197
lhand -27.7472 24.1725
lfingers 7.12502
lthumb -1.14176 54.1492
rfemur -65.6178 -1.78641 -16.7989
rtibia 47.1257
rfoot -24.5878 -16.2625
rtoes -27.929
lfemur -74.1111 5.21882 9.87877
ltibia 49.5056
lfoot -18.6637 6.64008
ltoes -45.8838
1843
root 9.08653 15.5931 -13.1804 44.6478 7.25695 0.734801
lowerback 28.6024 1.04232 -0.326521
upperback 15.3431 1.41319 3.38308
thorax 1.41094 0.526338 3.52793
lowerneck -0.598998 5.4258 17.4854
upperneck -14.8812 5.37712 -25.0311
head -2.74318 3.13084 -11.2238
rclavicle -1.90833e-014 1.32689e-014
rhumerus 24.0163 33.6327 -38.679
rradius 104.469
rwrist -20.1728
rhand -8.05819 21.3161
rfingers 7.12502
rthumb 17.8528 -7.88446
lclavicle -1.90833e-014 1.32689e-014
lhumerus -334.296 -20.0668 404.298
lradius 44.8526
lwrist 12.2535
lhand -26.4144 24.882
lfingers 7.12502
lthumb 0.145464 54.8617
rfemur -65.2943 -1.564 -16.6383
rtibia 46.7474
rfoot -25.2321 -14.4196
rtoes -21.7214
lfemur -73.8542 5.1739 10.1192
ltibia 49.2846
lfoot -18.7441 6.41055
ltoes -45.1866
1844
root 9.093 15.6136 -13.1794 44.6183 7.27848 0.753876
lowerback 28.6486 1.14951 -0.778
upperback 15.1874 1.4582 3.63339
thorax 1.19591 0.512031 4.04901
lowerneck -0.775504 5.45744 17.4926
upperneck -14.5244 5.41872 -25.3004
head -2.58538 3.14553 -11.2973
rclavicle 6.36111e-015 2.02978e-015
rhumerus 23.122 34.7982 -38.2239
rradius 104.091
rwrist -20.5245
rhand -8.32983 20.9702
rfingers 7.12502
rthumb 17.5915 -8.25398
lclavicle 6.36111e-015 2.02978e-015
lhumerus -333.403 -18.9975 404.453
lradius 45.8752
lwrist 12.9163
lhand -25.9056 25.1323
lfingers 7.12502
lthumb 0.636899 55.1111
rfemur -65.0066 -1.46948 -16.6868
rtibia 46.3663
rfoot -25.2696 -13.6432
rtoes -18.0645
lfemur -73.7219 5.06894 10.1095
ltibia 49.0986
lfoot -18.6705 6.4261
ltoes -44.9586
1845
root 9.10423 15.6314 -13.176 44.5576 7.23465 0.653078
lowerback 28.6856 1.26664 -1.11873
upperback 15.0274 1.53393 3.80341
thorax 0.980505 0.524297 4.41018
lowerneck -0.890808 5.50387 17.6299
upperneck -14.1921 5.49399 -25.5699
head -2.4334 3.17365 -11.3983
rclavicle -2.22639e-014 -1.70644e-014
rhumerus 22.117 35.9842 -37.7605
rradius 103.614
rwrist -20.8781
rhand -8.91284 20.8906
rfingers 7.12502
rthumb 17.0303 -8.38284
lclavicle -2.22639e-014 -1.70644e-014
lhumerus -332.657 -18.2054 404.205
lradius 47.4073
lwrist 13.9548
lhand -24.6839 27.2356
lfingers 7.12502
lthumb 1.81681 57.2076
rfemur -64.8931 -1.38013 -16.6141
rtibia 46.1887
rfoot -25.4159 -12.8279
rtoes -14.7187
lfemur -73.523 5.01495 10.1714
ltibia 48.9421
lfoot -18.5393 6.73359
ltoes -45.4924
1846
root 9.12124 15.6418 -13.1692 44.3599 7.12229 0.285534
lowerback 28.75 1.39679 -1.20887
upperback 14.9219 1.67195 3.87502
thorax 0.814506 0.58397 4.50149
lowerneck -0.90895 5.53387 17.773
upperneck -13.981 5.55498 -25.7163
head -2.34317 3.19668 -11.4658
rclavicle -7.95139e-016 -8.28684e-015
rhumerus 21.1572 37.1282 -37.353
rradius 103.156
rwrist -21.5112
rhand -9.86318 20.8617
rfingers 7.12502
rthumb 16.1154 -8.48829
lclavicle -7.95139e-016 -8.28684e-015
lhumerus -331.701 -17.4358 403.978
lradius 48.6249
lwrist 14.8902
lhand -23.1847 29.0282
lfingers 7.12502
lthumb 3.26472 58.9829
rfemur -64.8584 -1.13255 -16.2972
rtibia 46.0202
rfoot -25.4481 -12.387
rtoes -13.5894
lfemur -73.1311 5.05281 10.5041
ltibia 48.8796
lfoot -18.5574 6.8729
ltoes -45.4518
